<?xml version="1.0" encoding="UTF-8" standalone="no"?>
<svg
   xmlns:dc="http://purl.org/dc/elements/1.1/"
   xmlns:cc="http://creativecommons.org/ns#"
   xmlns:rdf="http://www.w3.org/1999/02/22-rdf-syntax-ns#"
   xmlns:svg="http://www.w3.org/2000/svg"
   xmlns="http://www.w3.org/2000/svg"
   xmlns:sodipodi="http://sodipodi.sourceforge.net/DTD/sodipodi-0.dtd"
   xmlns:inkscape="http://www.inkscape.org/namespaces/inkscape"
   enable-background="new 0 0 96 96"
   height="96px"
   id="image"
   version="1.1"
   viewBox="0 0 96 96"
   width="96px"
   xml:space="preserve"
   sodipodi:docname="overlayTime.svg"
   inkscape:version="0.92.2 5c3e80d, 2017-08-06"><metadata
     id="metadata3768"><rdf:RDF><cc:Work
         rdf:about=""><dc:format>image/svg+xml</dc:format><dc:type
           rdf:resource="http://purl.org/dc/dcmitype/StillImage" /><dc:title></dc:title></cc:Work></rdf:RDF></metadata><defs
     id="defs3766" /><sodipodi:namedview
     pagecolor="#ffffff"
     bordercolor="#666666"
     borderopacity="1"
     objecttolerance="10"
     gridtolerance="10"
     guidetolerance="10"
     inkscape:pageopacity="0"
     inkscape:pageshadow="2"
     inkscape:window-width="1399"
     inkscape:window-height="958"
     id="namedview3764"
     showgrid="false"
     inkscape:zoom="4.46875"
     inkscape:cx="36.289656"
     inkscape:cy="74.853147"
     inkscape:window-x="0"
     inkscape:window-y="0"
     inkscape:window-maximized="0"
     inkscape:current-layer="image" /><path
     d="M 81.006993,9.8181818 H 22.377622 c -6.070888,0 -10.993007,5.0177602 -10.993007,11.2066112 V 80.793388 C 11.384615,86.98224 16.306734,92 22.377622,92 H 81.006993 C 87.077881,92 92,86.98224 92,80.793388 V 21.024793 C 92,14.835942 87.077881,9.8181818 81.006993,9.8181818 Z M 18.713287,80.793388 V 21.024793 c 0,-2.063884 1.63979,-3.735537 3.664335,-3.735537 h 58.629371 c 2.024545,0 3.664336,1.671653 3.664336,3.735537 V 60.56919 L 66.34965,41.891504 24.524007,84.528926 h -2.146385 c -2.024545,0 -3.664335,-1.671653 -3.664335,-3.735538 z m 62.293706,3.735538 H 34.88858 L 66.34965,52.456537 84.671329,71.133289 v 9.660099 c 0,2.063885 -1.639791,3.735538 -3.664336,3.735538 z"
     id="path3759"
     inkscape:connector-curvature="0"
     style="stroke-width:0.9249413;fill:#666666" /><ellipse
     id="path3786"
     cx="28.853142"
     cy="-30.405592"
     rx="23.944056"
     ry="25.062937"
     style="fill:#ffffff;fill-opacity:1;stroke:#000000;stroke-width:5;stroke-miterlimit:4;stroke-dasharray:none;stroke-opacity:1"
     transform="scale(1,-1)" /><path
     style="fill:none;stroke:#000000;stroke-width:3;stroke-linecap:butt;stroke-linejoin:miter;stroke-opacity:1;stroke-miterlimit:4;stroke-dasharray:none"
     d="m 28.867133,14.993007 -0.223776,16.111888 9.174825,6.937063"
     id="path4593"
     inkscape:connector-curvature="0" /><path
     style="fill:#666666;fill-opacity:1;stroke:#666666;stroke-width:2;stroke-miterlimit:4;stroke-dasharray:none;stroke-opacity:1"
     d="M 46.276006,73.055785 C 65.027504,53.972189 66.257822,52.73574 66.43439,52.796944 c 0.09362,0.03245 4.206046,4.181311 9.138734,9.219691 l 8.968522,9.160691 -0.06663,5.496652 c -0.06478,5.344219 -0.08108,5.516914 -0.587766,6.227301 -1.151481,1.614404 0.6977,1.50037 -25.412283,1.567094 l -23.471884,0.05998 z"
     id="path4595"
     inkscape:connector-curvature="0" /></svg>